<svg width="20" height="20" viewBox="0 0 20 20" fill="none" xmlns="http://www.w3.org/2000/svg">
<g clip-path="url(#clip0_3_5297)">
<path d="M9.99997 10.625C9.25829 10.625 8.53327 10.4051 7.91658 9.99302C7.2999 9.58096 6.81925 8.99529 6.53542 8.31007C6.2516 7.62485 6.17733 6.87085 6.32203 6.14342C6.46672 5.41599 6.82388 4.7478 7.34832 4.22336C7.87277 3.69891 8.54096 3.34176 9.26838 3.19706C9.99581 3.05237 10.7498 3.12663 11.435 3.41046C12.1203 3.69429 12.7059 4.17493 13.118 4.79162C13.53 5.4083 13.75 6.13333 13.75 6.87501C13.75 7.86957 13.3549 8.8234 12.6516 9.52666C11.9484 10.2299 10.9945 10.625 9.99997 10.625ZM9.99997 4.37501C9.50552 4.37501 9.02217 4.52163 8.61105 4.79633C8.19992 5.07104 7.87949 5.46148 7.69027 5.9183C7.50105 6.37511 7.45155 6.87778 7.54801 7.36273C7.64447 7.84768 7.88257 8.29314 8.23221 8.64277C8.58184 8.9924 9.02729 9.23051 9.51225 9.32697C9.9972 9.42343 10.4999 9.37393 10.9567 9.18471C11.4135 8.99549 11.8039 8.67505 12.0786 8.26393C12.3534 7.85281 12.5 7.36946 12.5 6.87501C12.5 6.21197 12.2366 5.57608 11.7677 5.10724C11.2989 4.6384 10.663 4.37501 9.99997 4.37501Z" fill="#E89E46"/>
<path d="M9.99997 19.375C8.614 19.3741 7.24547 19.0659 5.99291 18.4725C4.74035 17.8792 3.63493 17.0156 2.75622 15.9438L2.43122 15.5438L2.75622 15.15C3.63567 14.0796 4.74142 13.2174 5.99394 12.6254C7.24646 12.0334 8.61461 11.7264 9.99997 11.7264C11.3853 11.7264 12.7535 12.0334 14.006 12.6254C15.2585 13.2174 16.3643 14.0796 17.2437 15.15L17.5687 15.5438L17.2437 15.9438C16.365 17.0156 15.2596 17.8792 14.007 18.4725C12.7545 19.0659 11.3859 19.3741 9.99997 19.375ZM4.06872 15.55C4.82887 16.3638 5.74818 17.0126 6.76958 17.4562C7.79098 17.8998 8.89266 18.1287 10.0062 18.1287C11.1198 18.1287 12.2215 17.8998 13.2429 17.4562C14.2643 17.0126 15.1836 16.3638 15.9437 15.55C15.1836 14.7362 14.2643 14.0874 13.2429 13.6438C12.2215 13.2002 11.1198 12.9713 10.0062 12.9713C8.89266 12.9713 7.79098 13.2002 6.76958 13.6438C5.74818 14.0874 4.82887 14.7362 4.06872 15.55Z" fill="#E89E46"/>
<path d="M9.99997 19.375C7.87044 19.3764 5.80387 18.6528 4.1404 17.3232C2.47693 15.9936 1.31569 14.1373 0.847806 12.0598C0.379919 9.98232 0.633268 7.80743 1.56615 5.8931C2.49904 3.97877 4.05587 2.43909 5.98041 1.52747C7.90496 0.615841 10.0825 0.386598 12.1547 0.877468C14.2269 1.36834 16.0702 2.55007 17.3813 4.22816C18.6924 5.90625 19.3931 7.98071 19.3681 10.1101C19.3431 12.2395 18.5938 14.2969 17.2437 15.9438C16.365 17.0156 15.2596 17.8792 14.007 18.4725C12.7545 19.0659 11.3859 19.3741 9.99997 19.375ZM9.99997 1.87501C8.393 1.87501 6.82211 2.35153 5.48596 3.24432C4.14981 4.1371 3.10841 5.40605 2.49345 6.8907C1.87849 8.37535 1.71759 10.009 2.03109 11.5851C2.3446 13.1612 3.11843 14.6089 4.25473 15.7452C5.39103 16.8815 6.83877 17.6554 8.41486 17.9689C9.99096 18.2824 11.6246 18.1215 13.1093 17.5065C14.5939 16.8916 15.8629 15.8502 16.7557 14.514C17.6484 13.1779 18.125 11.607 18.125 10C18.125 7.84512 17.2689 5.7785 15.7452 4.25476C14.2215 2.73103 12.1549 1.87501 9.99997 1.87501Z" fill="#E89E46"/>
<path d="M3.23747 15.55C3.23747 15.55 9.53122 22.5813 15.9375 16.25L16.7625 15.55C16.7625 15.55 11.4125 10 5.98122 13.3313L3.23747 15.55Z" fill="#E89E46"/>
<path d="M9.99997 10C11.7259 10 13.125 8.6009 13.125 6.87501C13.125 5.14912 11.7259 3.75001 9.99997 3.75001C8.27408 3.75001 6.87497 5.14912 6.87497 6.87501C6.87497 8.6009 8.27408 10 9.99997 10Z" fill="#E89E46"/>
</g>
<defs>
<clipPath id="clip0_3_5297">
<rect width="20" height="20" fill="white"/>
</clipPath>
</defs>
</svg>
