<svg width="20" height="20" viewBox="0 0 20 20" fill="none" xmlns="http://www.w3.org/2000/svg">
<path d="M7.35878 2.1029C6.12058 1.9657 4.871 1.9657 3.6328 2.1029C3.24637 2.14589 2.88578 2.31801 2.60946 2.59138C2.33313 2.86474 2.15726 3.22334 2.11034 3.60906C1.96338 4.86457 1.96338 6.13292 2.11034 7.38843C2.15726 7.77415 2.33313 8.13275 2.60946 8.40611C2.88578 8.67948 3.24637 8.8516 3.6328 8.89459C4.86068 9.03143 6.1309 9.03143 7.35878 8.89459C7.74521 8.8516 8.1058 8.67948 8.38212 8.40611C8.65844 8.13275 8.83432 7.77415 8.88124 7.38843C9.0282 6.13292 9.0282 4.86457 8.88124 3.60906C8.83432 3.22334 8.65844 2.86474 8.38212 2.59138C8.1058 2.31801 7.74521 2.14589 7.35878 2.1029ZM7.35878 11.1057C6.12058 10.9685 4.871 10.9685 3.6328 11.1057C3.24637 11.1487 2.88578 11.3208 2.60946 11.5942C2.33313 11.8675 2.15726 12.2261 2.11034 12.6118C1.96338 13.8673 1.96338 15.1357 2.11034 16.3912C2.15726 16.7769 2.33313 17.1355 2.60946 17.4089C2.88578 17.6823 3.24637 17.8544 3.6328 17.8974C4.86068 18.0342 6.1309 18.0342 7.35878 17.8974C7.74521 17.8544 8.1058 17.6823 8.38212 17.4089C8.65844 17.1355 8.83432 16.7769 8.88124 16.3912C9.02821 15.1357 9.02821 13.8673 8.88124 12.6118C8.83432 12.2261 8.65844 11.8675 8.38212 11.5942C8.1058 11.3208 7.74521 11.1487 7.35878 11.1057ZM16.3674 2.1029C15.1292 1.9657 13.8797 1.9657 12.6415 2.1029C12.255 2.14589 11.8944 2.31801 11.6181 2.59138C11.3418 2.86474 11.1659 3.22334 11.119 3.60906C10.972 4.86457 10.972 6.13292 11.119 7.38843C11.1659 7.77415 11.3418 8.13275 11.6181 8.40611C11.8944 8.67948 12.255 8.8516 12.6415 8.89459C13.8702 9.03143 15.1396 9.03143 16.3674 8.89459C16.7539 8.8516 17.1145 8.67948 17.3908 8.40611C17.6671 8.13275 17.843 7.77415 17.8899 7.38843C18.0369 6.13292 18.0369 4.86457 17.8899 3.60906C17.843 3.22334 17.6671 2.86474 17.3908 2.59138C17.1145 2.31801 16.7539 2.14589 16.3674 2.1029ZM16.3674 11.1057C15.1292 10.9685 13.8797 10.9685 12.6415 11.1057C12.255 11.1487 11.8944 11.3208 11.6181 11.5942C11.3418 11.8675 11.1659 12.2261 11.119 12.6118C10.972 13.8673 10.972 15.1357 11.119 16.3912C11.1659 16.7769 11.3418 17.1355 11.6181 17.4089C11.8944 17.6823 12.255 17.8544 12.6415 17.8974C13.8702 18.0342 15.1396 18.0342 16.3674 17.8974C16.7539 17.8544 17.1145 17.6823 17.3908 17.4089C17.6671 17.1355 17.843 16.7769 17.8899 16.3912C18.0369 15.1357 18.0369 13.8673 17.8899 12.6118C17.843 12.2261 17.6671 11.8675 17.3908 11.5942C17.1145 11.3208 16.7539 11.1487 16.3674 11.1057Z" fill="#E89E46"/>
</svg>
