<svg width="20" height="20" viewBox="0 0 20 20" fill="none" xmlns="http://www.w3.org/2000/svg">
<g clip-path="url(#clip0_3_5263)">
<path fill-rule="evenodd" clip-rule="evenodd" d="M11.1845 1.13831L12.3753 2.02972C12.7011 2.27351 13.0439 2.39827 13.4501 2.42089L14.9353 2.50351C15.8246 2.55296 16.5469 3.15902 16.75 4.02628L17.0893 5.4746C17.1821 5.8707 17.3645 6.18663 17.6612 6.46503L18.7458 7.48304C19.3953 8.09257 19.559 9.02113 19.1572 9.81605L18.4861 11.1436C18.3026 11.5067 18.2393 11.8659 18.2875 12.2699L18.4641 13.7469C18.5698 14.6313 18.0984 15.4478 17.2796 15.7985L15.9122 16.3841C15.5382 16.5443 15.2587 16.7788 15.0361 17.1193L14.2219 18.3642C13.7344 19.1096 12.8484 19.4321 11.9958 19.1744L10.5719 18.7441C10.1825 18.6264 9.81769 18.6264 9.42824 18.7441L8.00433 19.1744C7.15176 19.4321 6.26574 19.1096 5.77824 18.3642L4.96406 17.1193C4.74136 16.7788 4.46191 16.5443 4.08797 16.3841L2.72047 15.7984C1.90172 15.4478 1.43027 14.6312 1.53597 13.7468L1.71254 12.2698C1.76082 11.8659 1.69746 11.5066 1.51394 11.1435L0.842888 9.81597C0.441091 9.02109 0.604802 8.09253 1.25426 7.48296L2.3389 6.46495C2.63554 6.18656 2.81793 5.87062 2.9107 5.47452L3.25 4.0262C3.45312 3.15898 4.17543 2.55292 5.06476 2.50343L6.54996 2.42081C6.95617 2.39824 7.29898 2.27343 7.62469 2.02964L8.81554 1.13824C9.52855 0.604564 10.4714 0.604564 11.1845 1.13831ZM9.24035 10.5101L7.94801 9.21781C7.61304 8.88284 7.06972 8.88284 6.7348 9.21781C6.39984 9.55277 6.39984 10.096 6.7348 10.431L8.63562 12.3318C8.97058 12.6667 9.5139 12.6668 9.84883 12.3318C10.9945 11.186 12.1273 10.0275 13.2677 8.87648C13.6002 8.54085 13.5992 7.99929 13.264 7.66597C12.9287 7.33257 12.3856 7.33351 12.0527 7.66972L9.24035 10.5101ZM10 3.61148C8.2359 3.61148 6.63875 4.32656 5.48265 5.48265C4.32656 6.63878 3.61148 8.23589 3.61148 9.99999C3.61148 11.7641 4.32656 13.3612 5.48265 14.5173C6.63875 15.6734 8.2359 16.3885 10 16.3885C11.7641 16.3885 13.3612 15.6734 14.5173 14.5173C15.6734 13.3612 16.3885 11.7641 16.3885 9.99999C16.3885 8.23589 15.6734 6.63874 14.5173 5.48265C13.3612 4.32656 11.7641 3.61148 10 3.61148ZM14.0754 5.92456C13.0325 4.8816 11.5916 4.23648 10 4.23648C8.40844 4.23648 6.96754 4.8816 5.92457 5.92456C4.8816 6.96753 4.23648 8.40843 4.23648 9.99999C4.23648 11.5916 4.8816 13.0325 5.92457 14.0754C6.96754 15.1184 8.40844 15.7635 10 15.7635C11.5916 15.7635 13.0325 15.1184 14.0754 14.0755C15.1184 13.0325 15.7635 11.5916 15.7635 10C15.7635 8.40843 15.1184 6.96753 14.0754 5.92456Z" fill="#E89E46"/>
</g>
<defs>
<clipPath id="clip0_3_5263">
<rect width="20" height="20" fill="white"/>
</clipPath>
</defs>
</svg>
