<svg width="196" height="70" viewBox="0 0 196 70" fill="none" xmlns="http://www.w3.org/2000/svg">
<path d="M142.755 45.7811C142.344 45.7811 142.027 45.669 141.803 45.4448C141.579 45.202 141.466 44.8751 141.466 44.4641V28.0162H135.386C134.975 28.0162 134.648 27.9321 134.405 27.764C134.181 27.5772 134.069 27.3157 134.069 26.9794C134.069 26.2509 134.508 25.8866 135.386 25.8866H150.209C150.62 25.8866 150.937 25.98 151.161 26.1669C151.386 26.3537 151.498 26.6245 151.498 26.9794C151.498 27.297 151.386 27.5492 151.161 27.736C150.937 27.9228 150.62 28.0162 150.209 28.0162H144.128V44.4641C144.128 44.8751 144.007 45.202 143.764 45.4448C143.521 45.669 143.185 45.7811 142.755 45.7811Z" fill="#E89E46"/>
<path d="M156.744 45.7811C156.352 45.7811 156.034 45.669 155.792 45.4448C155.567 45.202 155.455 44.8751 155.455 44.4641V26.9234C155.455 26.5124 155.567 26.1949 155.792 25.9707C156.034 25.7279 156.352 25.6064 156.744 25.6064C157.155 25.6064 157.482 25.7279 157.725 25.9707C157.968 26.1949 158.089 26.5124 158.089 26.9234V44.4641C158.089 44.8751 157.968 45.202 157.725 45.4448C157.482 45.669 157.155 45.7811 156.744 45.7811Z" fill="#E89E46"/>
<path d="M166.938 45.5009C165.687 45.5009 164.715 45.174 164.024 44.5202C163.352 43.8664 163.015 42.9604 163.015 41.8022V26.9234C163.015 26.5124 163.127 26.1949 163.352 25.9707C163.594 25.7279 163.921 25.6064 164.332 25.6064C164.743 25.6064 165.07 25.7279 165.313 25.9707C165.556 26.1949 165.677 26.5124 165.677 26.9234V41.8302C165.677 42.2972 165.799 42.6708 166.042 42.951C166.284 43.2312 166.621 43.3713 167.05 43.3713H176.269C177.147 43.3713 177.586 43.7263 177.586 44.4361C177.586 44.7723 177.465 45.0339 177.222 45.2207C176.998 45.4075 176.68 45.5009 176.269 45.5009H166.938Z" fill="#E89E46"/>
<path d="M184.559 45.5009C183.345 45.5009 182.392 45.174 181.701 44.5202C181.01 43.8664 180.664 42.9604 180.664 41.8022V29.5013C180.664 28.3805 181.001 27.5025 181.673 26.8674C182.345 26.2136 183.28 25.8866 184.475 25.8866H193.161C194.039 25.8866 194.478 26.2509 194.478 26.9794C194.478 27.297 194.357 27.5492 194.114 27.736C193.89 27.9228 193.572 28.0162 193.161 28.0162H184.699C184.27 28.0162 183.924 28.1563 183.662 28.4365C183.42 28.7167 183.298 29.0903 183.298 29.5573V34.4048H191.032C191.91 34.4048 192.349 34.7691 192.349 35.4976C192.349 35.8339 192.227 36.0954 191.984 36.2822C191.76 36.469 191.443 36.5624 191.032 36.5624H183.298V41.8302C183.298 42.2972 183.42 42.6708 183.662 42.951C183.924 43.2312 184.27 43.3713 184.699 43.3713H193.778C194.207 43.3713 194.534 43.4647 194.759 43.6515C194.983 43.8197 195.095 44.0812 195.095 44.4361C195.095 44.7723 194.973 45.0339 194.73 45.2207C194.506 45.4075 194.189 45.5009 193.778 45.5009H184.559Z" fill="#E89E46"/>
<g clip-path="url(#clip0_894_3406)">
<path d="M106.161 49.9477C107.436 48.5428 108.573 47.3984 109.586 46.1559C110.096 45.5321 110.56 45.2486 111.396 45.3027C113.653 45.4522 115.321 46.5477 116.642 48.3083C118.172 50.3292 119.929 52.015 122.421 52.7342C123.025 52.9095 123.634 53.0564 124.377 53.2497C122.677 56.1504 120.541 58.7655 118.045 61.0009C111.098 67.2544 102.93 70.2961 93.663 69.9738C77.179 69.4016 63.62 57.4437 60.82 41.2557C57.7599 23.6062 67.741 7.0754 84.3525 1.67769C103.789 -4.63509 124.445 7.46979 128.725 27.7125C130.402 35.6672 129.367 43.3075 125.894 50.6385C125.44 51.5948 124.894 51.8629 123.902 51.6258C121.765 51.1102 119.909 50.1307 118.583 48.3392C116.815 45.9548 114.775 44.068 111.657 43.8231C111.549 43.8231 111.453 43.6916 111.277 43.5653C113.653 38.6239 114.036 33.5432 112.085 28.3724C111.071 25.5841 109.356 23.1115 107.107 21.1986C105.439 22.7787 103.853 24.2583 102.305 25.774C102.084 26.0261 101.964 26.3524 101.969 26.6891C102.152 34.1335 102.826 41.5006 105.49 48.5377C105.628 48.8857 105.814 49.2156 106.161 49.9477ZM97.353 29.5658C90.8502 33.5406 84.1536 36.6674 76.6486 38.1856C76.975 39.3508 77.1968 40.3947 77.5717 41.3794C77.7706 41.8432 78.1195 42.225 78.5612 42.4621C84.5539 45.496 90.8221 46.8802 97.5366 45.6996C98.5898 45.5141 98.8524 45.2305 98.6484 44.1376C98.2262 41.9088 97.9155 39.6599 97.7176 37.3995C97.5009 34.881 97.4728 32.3497 97.353 29.5658ZM79.0176 44.1041C82.6286 52.1104 93.8619 55.8661 101.119 52.3527C100.566 50.7391 99.9668 49.1383 99.4772 47.5066C99.2222 46.6637 98.8218 46.4755 97.9956 46.6405C93.7703 47.4591 89.4156 47.2889 85.2654 46.143C83.1616 45.5862 81.1138 44.7949 79.0176 44.1041ZM98.804 16.9531C88.9299 14.3394 79.1222 21.874 77.8038 28.8518C85.574 26.3437 92.5485 22.5519 98.804 16.9531ZM106.169 20.4949C104.368 18.7446 104.356 18.7575 102.729 20.1546C95.5087 26.3874 87.1325 31.1036 78.0894 34.0278C76.2559 34.6233 76.1003 34.8681 76.7557 37.1211C88.1113 34.3964 98.0798 29.2617 106.169 20.4949ZM103.027 18.4637C100.592 16.9841 100.515 16.9738 98.6535 18.5462C92.7912 23.5221 86.0253 27.2949 78.7346 29.6535C76.901 30.2515 76.4395 31.0454 76.7608 33.3628C86.4687 30.3503 95.4252 25.2698 103.027 18.4637ZM100.941 27.0629C99.3854 27.8903 98.4393 28.6585 98.4444 30.468C98.4444 35.2471 98.6994 39.99 99.824 44.6454C100.354 46.8416 101.165 48.9682 101.864 51.1205C102.099 51.8423 102.548 52.0485 103.228 51.6129C103.856 51.2134 104.503 50.8396 105.108 50.4839C102.007 42.9286 101.211 35.1517 100.941 27.0629Z" fill="#E89E46"/>
<path d="M97.354 29.5664C97.4739 32.3503 97.5019 34.8816 97.7187 37.4C97.9166 39.6605 98.2273 41.9094 98.6495 44.1381C98.8535 45.2311 98.5908 45.5146 97.5376 45.7002C90.8232 46.8808 84.555 45.4966 78.5622 42.4626C78.1206 42.2256 77.7717 41.8438 77.5728 41.38C77.1979 40.3953 76.9761 39.3513 76.6497 38.1862C84.1572 36.668 90.8512 33.5412 97.354 29.5664Z" fill="white"/>
<path d="M79.017 44.1045C81.1132 44.7953 83.1609 45.5764 85.2647 46.146C89.4149 47.2919 93.7696 47.4621 97.9949 46.6435C98.8212 46.4837 99.2215 46.6667 99.4765 47.5096C99.9662 49.1413 100.565 50.7421 101.119 52.3557C93.8612 55.8665 82.6254 52.1108 79.017 44.1045Z" fill="white"/>
<path d="M98.8046 16.9534C92.5492 22.5522 85.5746 26.344 77.8044 28.8521C79.1229 21.8717 88.9306 14.3397 98.8046 16.9534Z" fill="white"/>
<path d="M106.169 20.495C98.0801 29.2591 88.1117 34.3965 76.7561 37.116C76.1007 34.8682 76.246 34.6233 78.0898 34.0227C87.1329 31.0985 95.509 26.3823 102.729 20.1496C104.356 18.7576 104.369 18.7447 106.169 20.495Z" fill="white"/>
<path d="M103.027 18.4638C95.4254 25.2699 86.4689 30.3504 76.7611 33.3629C76.4372 31.043 76.9013 30.2516 78.7348 29.6536C86.0256 27.295 92.7915 23.5222 98.6538 18.5463C100.515 16.9739 100.592 16.9739 103.027 18.4638Z" fill="white"/>
<path d="M100.941 27.0635C101.211 35.1523 101.997 42.9292 105.111 50.4767C104.504 50.8376 103.858 51.2062 103.231 51.6057C102.55 52.0414 102.101 51.8352 101.867 51.1134C101.166 48.961 100.355 46.8344 99.8267 44.6382C98.7072 39.9984 98.4548 35.2477 98.4471 30.4609C98.4369 28.6591 99.3856 27.8909 100.941 27.0635Z" fill="white"/>
</g>
<path d="M8.6863 45.7804C8.27534 45.7804 7.95778 45.6683 7.73361 45.4442C7.50945 45.2013 7.39737 44.8744 7.39737 44.4635V28.0155H1.31696C0.905991 28.0155 0.579087 27.9315 0.336244 27.7633C0.112081 27.5765 0 27.315 0 26.9788C0 26.2502 0.438985 25.886 1.31696 25.886H16.1397C16.5507 25.886 16.8682 25.9794 17.0924 26.1662C17.3166 26.353 17.4286 26.6238 17.4286 26.9788C17.4286 27.2963 17.3166 27.5485 17.0924 27.7353C16.8682 27.9221 16.5507 28.0155 16.1397 28.0155H10.0593V44.4635C10.0593 44.8744 9.93788 45.2013 9.69504 45.4442C9.45219 45.6683 9.11595 45.7804 8.6863 45.7804Z" fill="#E89E46"/>
<path d="M24.4125 45.5002C23.1983 45.5002 22.2456 45.1733 21.5544 44.5195C20.8633 43.8657 20.5177 42.9597 20.5177 41.8015V29.5006C20.5177 28.3798 20.8539 27.5018 21.5264 26.8667C22.1989 26.2129 23.1329 25.886 24.3284 25.886H33.0147C33.8927 25.886 34.3317 26.2502 34.3317 26.9788C34.3317 27.2963 34.2103 27.5485 33.9674 27.7353C33.7433 27.9221 33.4257 28.0155 33.0147 28.0155H24.5526C24.123 28.0155 23.7774 28.1556 23.5158 28.4358C23.273 28.716 23.1516 29.0896 23.1516 29.5566V34.4042H30.8852C31.7632 34.4042 32.2021 34.7684 32.2021 35.4969C32.2021 35.8332 32.0807 36.0947 31.8379 36.2815C31.6137 36.4683 31.2962 36.5617 30.8852 36.5617H23.1516V41.8295C23.1516 42.2965 23.273 42.6701 23.5158 42.9504C23.7774 43.2306 24.123 43.3707 24.5526 43.3707H33.6312C34.0608 43.3707 34.3877 43.4641 34.6119 43.6509C34.8361 43.819 34.9481 44.0805 34.9481 44.4354C34.9481 44.7717 34.8267 45.0332 34.5839 45.22C34.3597 45.4068 34.0422 45.5002 33.6312 45.5002H24.4125Z" fill="#E89E46"/>
<path d="M54.2548 43.847C54.4229 44.0712 54.507 44.3233 54.507 44.6036C54.507 45.0332 54.3295 45.3601 53.9746 45.5843C53.7131 45.715 53.4983 45.7804 53.3301 45.7804C52.9752 45.7804 52.611 45.5562 52.2373 45.1079L45.9608 37.3743L39.6842 45.1079C39.3293 45.5562 38.965 45.7804 38.5914 45.7804C38.442 45.7804 38.2365 45.715 37.975 45.5843C37.6201 45.3601 37.4426 45.0332 37.4426 44.6036C37.4426 44.3233 37.5267 44.0712 37.6948 43.847L44.4477 35.4969L38.0591 27.6513C37.8723 27.4084 37.7789 27.1282 37.7789 26.8106C37.7789 26.3436 37.947 26.0167 38.2832 25.8299C38.4887 25.6992 38.7035 25.6338 38.9277 25.6338C39.32 25.6338 39.6749 25.8393 39.9925 26.2502L45.9608 33.6196L51.9291 26.2502C52.2654 25.8393 52.6203 25.6338 52.9939 25.6338C53.2181 25.6338 53.4329 25.6992 53.6384 25.8299C53.9933 26.0728 54.1707 26.3997 54.1707 26.8106C54.1707 27.1469 54.068 27.4271 53.8625 27.6513L47.5019 35.4969L54.2548 43.847Z" fill="#E89E46"/>
<defs>
<clipPath id="clip0_894_3406">
<rect width="69.2254" height="70" fill="white" transform="translate(60.2749)"/>
</clipPath>
</defs>
</svg>
